ISO-10303-21;
HEADER;
FILE_DESCRIPTION (( 'STEP AP214' ),
    '1' );
FILE_NAME ('stepper_motor_coupler.STEP',
    '2023-11-21T21:36:51',
    ( '' ),
    ( '' ),
    'SwSTEP 2.0',
    'SolidWorks 2022',
    '' );
FILE_SCHEMA (( 'AUTOMOTIVE_DESIGN' ));
ENDSEC;

DATA;
#1 = VECTOR ( 'NONE', #699, 1000.000000000000000 ) ;
#2 = EDGE_CURVE ( 'NONE', #45, #301, #908, .T. ) ;
#3 = CARTESIAN_POINT ( 'NONE',  ( -0.9830000000000003180, 0.4999999999999995559, -2.433995891533097922 ) ) ;
#4 = CARTESIAN_POINT ( 'NONE',  ( -1.683000000000001828, 0.4999999999999995559, 0.9829999999999999849 ) ) ;
#5 = EDGE_LOOP ( 'NONE', ( #602, #592 ) ) ;
#6 = FACE_OUTER_BOUND ( 'NONE', #201, .T. ) ;
#7 = DIRECTION ( 'NONE',  ( -0.000000000000000000, -1.000000000000000000, -0.000000000000000000 ) ) ;
#8 = ADVANCED_FACE ( 'NONE', ( #697, #200 ), #759, .T. ) ;
#9 = EDGE_CURVE ( 'NONE', #871, #146, #62, .T. ) ;
#10 = ORIENTED_EDGE ( 'NONE', *, *, #64, .T. ) ;
#11 = LINE ( 'NONE', #567, #75 ) ;
#12 = DIRECTION ( 'NONE',  ( 0.000000000000000000, 1.000000000000000000, 0.000000000000000000 ) ) ;
#13 = VERTEX_POINT ( 'NONE', #212 ) ;
#14 = AXIS2_PLACEMENT_3D ( 'NONE', #464, #679, #826 ) ;
#15 =( LENGTH_UNIT ( ) NAMED_UNIT ( * ) SI_UNIT ( .MILLI., .METRE. ) );
#16 = VECTOR ( 'NONE', #406, 1000.000000000000000 ) ;
#17 = DIRECTION ( 'NONE',  ( -0.000000000000000000, -1.000000000000000000, -0.000000000000000000 ) ) ;
#18 = VERTEX_POINT ( 'NONE', #276 ) ;
#19 = DIRECTION ( 'NONE',  ( -0.000000000000000000, -1.000000000000000000, -0.000000000000000000 ) ) ;
#20 = CARTESIAN_POINT ( 'NONE',  ( 1.683000000000002716, 0.4999999999999995559, -1.683000000000000052 ) ) ;
#21 = VERTEX_POINT ( 'NONE', #628 ) ;
#22 = CARTESIAN_POINT ( 'NONE',  ( -1.586500000000000465, -0.4999999999999995559, -2.115124996306364746 ) ) ;
#23 = MANIFOLD_SOLID_BREP ( 'Cut-Extrude2', #132 ) ;
#24 = PLANE ( 'NONE',  #568 ) ;
#25 = EDGE_CURVE ( 'NONE', #245, #21, #704, .T. ) ;
#26 = ORIENTED_EDGE ( 'NONE', *, *, #713, .T. ) ;
#27 = CARTESIAN_POINT ( 'NONE',  ( 1.683000000000002716, 0.4999999999999995559, 1.683000000000000052 ) ) ;
#28 = VECTOR ( 'NONE', #66, 1000.000000000000000 ) ;
#29 = ADVANCED_FACE ( 'NONE', ( #360 ), #579, .F. ) ;
#30 = VECTOR ( 'NONE', #637, 1000.000000000000000 ) ;
#31 = CIRCLE ( 'NONE', #838, 0.6999999999999996225 ) ;
#32 = EDGE_LOOP ( 'NONE', ( #290, #424, #701, #558 ) ) ;
#33 = CARTESIAN_POINT ( 'NONE',  ( -2.433995891533097922, 0.4999999999999995559, -0.9830000000000003180 ) ) ;
#34 = DIRECTION ( 'NONE',  ( -1.000000000000000000, 0.000000000000000000, 0.000000000000000000 ) ) ;
#35 = EDGE_LOOP ( 'NONE', ( #625, #80, #470, #760 ) ) ;
#36 = EDGE_CURVE ( 'NONE', #209, #871, #186, .T. ) ;
#37 = EDGE_CURVE ( 'NONE', #235, #301, #422, .T. ) ;
#38 = CARTESIAN_POINT ( 'NONE',  ( -1.683000000000002272, 6.500000000000000000, -0.9829999999999995408 ) ) ;
#39 = CARTESIAN_POINT ( 'NONE',  ( 0.000000000000000000, 6.500000000000000000, 0.000000000000000000 ) ) ;
#40 = ORIENTED_EDGE ( 'NONE', *, *, #89, .T. ) ;
#41 = DIRECTION ( 'NONE',  ( -0.000000000000000000, 1.000000000000000000, -0.000000000000000000 ) ) ;
#42 = VECTOR ( 'NONE', #486, 1000.000000000000000 ) ;
#43 = VECTOR ( 'NONE', #70, 1000.000000000000000 ) ;
#44 = AXIS2_PLACEMENT_3D ( 'NONE', #862, #512, #576 ) ;
#45 = VERTEX_POINT ( 'NONE', #302 ) ;
#46 = DIRECTION ( 'NONE',  ( 0.000000000000000000, 0.000000000000000000, 1.000000000000000000 ) ) ;
#47 = EDGE_CURVE ( 'NONE', #546, #861, #31, .T. ) ;
#48 = VERTEX_POINT ( 'NONE', #869 ) ;
#49 = DIRECTION ( 'NONE',  ( -0.000000000000000000, -1.000000000000000000, -0.000000000000000000 ) ) ;
#50 = CARTESIAN_POINT ( 'NONE',  ( 0.9830000000000029825, 0.4999999999999995559, -1.683000000000000052 ) ) ;
#51 = EDGE_LOOP ( 'NONE', ( #188, #559, #309, #858 ) ) ;
#52 = LINE ( 'NONE', #395, #585 ) ;
#53 = LINE ( 'NONE', #906, #42 ) ;
#54 = APPLICATION_PROTOCOL_DEFINITION ( 'draft international standard', 'automotive_design', 1998, #689 ) ;
#55 = MECHANICAL_DESIGN_GEOMETRIC_PRESENTATION_REPRESENTATION (  '', ( #443 ), #127 ) ;
#56 = DIRECTION ( 'NONE',  ( -0.000000000000000000, -1.000000000000000000, -0.000000000000000000 ) ) ;
#57 = ORIENTED_EDGE ( 'NONE', *, *, #25, .T. ) ;
#58 = CIRCLE ( 'NONE', #44, 2.644000000000000128 ) ;
#59 = FACE_BOUND ( 'NONE', #618, .T. ) ;
#60 = CARTESIAN_POINT ( 'NONE',  ( 0.000000000000000000, 0.4999999999999995559, 2.625000000000000000 ) ) ;
#61 = DIRECTION ( 'NONE',  ( 1.000000000000000000, -0.000000000000000000, 0.000000000000000000 ) ) ;
#62 = LINE ( 'NONE', #904, #112 ) ;
#63 = ORIENTED_EDGE ( 'NONE', *, *, #548, .F. ) ;
#64 = EDGE_CURVE ( 'NONE', #578, #807, #429, .T. ) ;
#65 = DIRECTION ( 'NONE',  ( 0.000000000000000000, 0.000000000000000000, 1.000000000000000000 ) ) ;
#66 = DIRECTION ( 'NONE',  ( 2.309897424918675929E-15, -0.000000000000000000, 1.000000000000000000 ) ) ;
#67 = PLANE ( 'NONE',  #508 ) ;
#68 = EDGE_CURVE ( 'NONE', #743, #440, #793, .T. ) ;
#69 = ORIENTED_EDGE ( 'NONE', *, *, #868, .F. ) ;
#70 = DIRECTION ( 'NONE',  ( 1.000000000000000000, 0.000000000000000000, 0.000000000000000000 ) ) ;
#71 = CYLINDRICAL_SURFACE ( 'NONE', #459, 0.6999999999999996225 ) ;
#72 = VECTOR ( 'NONE', #264, 1000.000000000000000 ) ;
#73 = ORIENTED_EDGE ( 'NONE', *, *, #633, .F. ) ;
#74 = AXIS2_PLACEMENT_3D ( 'NONE', #860, #226, #723 ) ;
#75 = VECTOR ( 'NONE', #160, 1000.000000000000000 ) ;
#76 = AXIS2_PLACEMENT_3D ( 'NONE', #268, #125, #538 ) ;
#77 = DIRECTION ( 'NONE',  ( -0.000000000000000000, 1.000000000000000000, -0.000000000000000000 ) ) ;
#78 = EDGE_CURVE ( 'NONE', #348, #18, #480, .T. ) ;
#79 = DIRECTION ( 'NONE',  ( 0.000000000000000000, 0.000000000000000000, 1.000000000000000000 ) ) ;
#80 = ORIENTED_EDGE ( 'NONE', *, *, #379, .F. ) ;
#81 = DIRECTION ( 'NONE',  ( -0.000000000000000000, 1.000000000000000000, -0.000000000000000000 ) ) ;
#82 = VERTEX_POINT ( 'NONE', #418 ) ;
#83 = DIRECTION ( 'NONE',  ( -1.732423068689012075E-15, 0.000000000000000000, -1.000000000000000000 ) ) ;
#84 = LINE ( 'NONE', #357, #910 ) ;
#85 = ORIENTED_EDGE ( 'NONE', *, *, #318, .T. ) ;
#86 = VECTOR ( 'NONE', #497, 1000.000000000000000 ) ;
#87 = DIRECTION ( 'NONE',  ( 0.000000000000000000, 0.000000000000000000, 1.000000000000000000 ) ) ;
#88 = ORIENTED_EDGE ( 'NONE', *, *, #2, .F. ) ;
#89 = EDGE_CURVE ( 'NONE', #348, #334, #11, .T. ) ;
#90 = DIRECTION ( 'NONE',  ( 0.000000000000000000, 0.000000000000000000, 1.000000000000000000 ) ) ;
#91 = ORIENTED_EDGE ( 'NONE', *, *, #589, .F. ) ;
#92 = EDGE_CURVE ( 'NONE', #553, #432, #58, .T. ) ;
#93 = DIRECTION ( 'NONE',  ( 1.732423068689006947E-15, 0.000000000000000000, -1.000000000000000000 ) ) ;
#94 = DIRECTION ( 'NONE',  ( -0.000000000000000000, 1.000000000000000000, -0.000000000000000000 ) ) ;
#95 = EDGE_LOOP ( 'NONE', ( #721, #227, #138, #505 ) ) ;
#96 = LINE ( 'NONE', #250, #294 ) ;
#97 = CIRCLE ( 'NONE', #555, 0.6999999999999998446 ) ;
#98 = ADVANCED_FACE ( 'NONE', ( #796 ), #164, .F. ) ;
#99 = CARTESIAN_POINT ( 'NONE',  ( 0.000000000000000000, -0.4999999999999995559, 0.000000000000000000 ) ) ;
#100 = ADVANCED_FACE ( 'NONE', ( #853 ), #225, .F. ) ;
#101 = ORIENTED_EDGE ( 'NONE', *, *, #795, .F. ) ;
#102 = DIRECTION ( 'NONE',  ( -0.000000000000000000, 1.000000000000000000, -0.000000000000000000 ) ) ;
#103 = CARTESIAN_POINT ( 'NONE',  ( 2.433995891533097922, 0.4999999999999995559, -0.9830000000000012061 ) ) ;
#104 = ORIENTED_EDGE ( 'NONE', *, *, #651, .F. ) ;
#105 = DIRECTION ( 'NONE',  ( -0.000000000000000000, -0.000000000000000000, 1.000000000000000000 ) ) ;
#106 = CARTESIAN_POINT ( 'NONE',  ( -0.9830000000000023164, 0.4999999999999995559, -1.682999999999999829 ) ) ;
#107 = VERTEX_POINT ( 'NONE', #228 ) ;
#108 = CYLINDRICAL_SURFACE ( 'NONE', #282, 2.625000000000000000 ) ;
#109 = VECTOR ( 'NONE', #288, 1000.000000000000000 ) ;
#110 = AXIS2_PLACEMENT_3D ( 'NONE', #199, #545, #123 ) ;
#111 = AXIS2_PLACEMENT_3D ( 'NONE', #39, #381, #739 ) ;
#112 = VECTOR ( 'NONE', #624, 1000.000000000000000 ) ;
#113 = AXIS2_PLACEMENT_3D ( 'NONE', #687, #682, #190 ) ;
#114 = EDGE_LOOP ( 'NONE', ( #606, #489, #650, #542, #139 ) ) ;
#115 = LINE ( 'NONE', #257, #571 ) ;
#116 = ADVANCED_FACE ( 'NONE', ( #785 ), #155, .F. ) ;
#117 = PRESENTATION_STYLE_ASSIGNMENT (( #385 ) ) ;
#118 = CARTESIAN_POINT ( 'NONE',  ( 0.000000000000000000, -6.500000000000000000, -2.644000000000000128 ) ) ;
#119 = VERTEX_POINT ( 'NONE', #460 ) ;
#120 = CARTESIAN_POINT ( 'NONE',  ( 0.9830000000000016502, 0.4999999999999995559, 2.433995891533097478 ) ) ;
#121 =( NAMED_UNIT ( * ) PLANE_ANGLE_UNIT ( ) SI_UNIT ( $, .RADIAN. ) );
#122 = PRODUCT_DEFINITION_CONTEXT ( 'detailed design', #689, 'design' ) ;
#123 = DIRECTION ( 'NONE',  ( 0.000000000000000000, 0.000000000000000000, 1.000000000000000000 ) ) ;
#124 = ORIENTED_EDGE ( 'NONE', *, *, #196, .F. ) ;
#125 = DIRECTION ( 'NONE',  ( -1.000000000000000000, 0.000000000000000000, 2.309897424918675929E-15 ) ) ;
#126 = DIRECTION ( 'NONE',  ( 0.000000000000000000, 0.000000000000000000, -1.000000000000000000 ) ) ;
#127 =( GEOMETRIC_REPRESENTATION_CONTEXT ( 3 ) GLOBAL_UNCERTAINTY_ASSIGNED_CONTEXT ( ( #748 ) ) GLOBAL_UNIT_ASSIGNED_CONTEXT ( ( #604, #121, #675 ) ) REPRESENTATION_CONTEXT ( 'NONE', 'WORKASPACE' ) );
#128 = LINE ( 'NONE', #691, #72 ) ;
#129 = ADVANCED_FACE ( 'NONE', ( #741 ), #108, .F. ) ;
#130 = CARTESIAN_POINT ( 'NONE',  ( 0.000000000000000000, 6.500000000000000000, 0.000000000000000000 ) ) ;
#131 = AXIS2_PLACEMENT_3D ( 'NONE', #840, #541, #275 ) ;
#132 = CLOSED_SHELL ( 'NONE', ( #269, #824, #388, #712, #8, #258, #345, #851, #438, #452, #162, #230, #195, #550, #29, #647, #814, #532, #98, #129, #295, #889, #100, #771, #116, #484, #327, #521 ) ) ;
#133 = EDGE_CURVE ( 'NONE', #260, #516, #791, .T. ) ;
#134 = EDGE_LOOP ( 'NONE', ( #163, #101, #352, #323 ) ) ;
#135 = CARTESIAN_POINT ( 'NONE',  ( 5.510910596163087583E-16, -6.500000000000000000, 4.500000000000000000 ) ) ;
#136 = DIRECTION ( 'NONE',  ( -2.887371781148343137E-15, 0.000000000000000000, 1.000000000000000000 ) ) ;
#137 = CARTESIAN_POINT ( 'NONE',  ( -1.683000000000001828, 6.500000000000000000, 0.9829999999999999849 ) ) ;
#138 = ORIENTED_EDGE ( 'NONE', *, *, #92, .T. ) ;
#139 = ORIENTED_EDGE ( 'NONE', *, *, #752, .T. ) ;
#140 = CARTESIAN_POINT ( 'NONE',  ( 1.683000000000002716, 0.4999999999999995559, -0.9830000000000000959 ) ) ;
#141 = DIRECTION ( 'NONE',  ( -1.000000000000000000, -0.000000000000000000, 1.732423068689012272E-15 ) ) ;
#142 = ORIENTED_EDGE ( 'NONE', *, *, #434, .T. ) ;
#143 = LINE ( 'NONE', #772, #790 ) ;
#144 = DIRECTION ( 'NONE',  ( 0.000000000000000000, 0.000000000000000000, 1.000000000000000000 ) ) ;
#145 = VECTOR ( 'NONE', #393, 1000.000000000000000 ) ;
#146 = VERTEX_POINT ( 'NONE', #371 ) ;
#147 = VECTOR ( 'NONE', #156, 1000.000000000000000 ) ;
#148 = AXIS2_PLACEMENT_3D ( 'NONE', #439, #673, #316 ) ;
#149 = CARTESIAN_POINT ( 'NONE',  ( 1.683000000000002716, 0.4999999999999995559, -0.9829999999999999849 ) ) ;
#150 = FACE_OUTER_BOUND ( 'NONE', #724, .T. ) ;
#151 = ORIENTED_EDGE ( 'NONE', *, *, #78, .F. ) ;
#152 = CARTESIAN_POINT ( 'NONE',  ( -1.683000000000001828, 0.4999999999999995559, 0.9830000000000003180 ) ) ;
#153 = DIRECTION ( 'NONE',  ( -0.000000000000000000, -1.000000000000000000, 0.000000000000000000 ) ) ;
#154 = ORIENTED_EDGE ( 'NONE', *, *, #580, .F. ) ;
#155 = PLANE ( 'NONE',  #583 ) ;
#156 = DIRECTION ( 'NONE',  ( -0.000000000000000000, -0.000000000000000000, -1.000000000000000000 ) ) ;
#157 = ORIENTED_EDGE ( 'NONE', *, *, #213, .T. ) ;
#158 = AXIS2_PLACEMENT_3D ( 'NONE', #902, #843, #560 ) ;
#159 = EDGE_CURVE ( 'NONE', #166, #82, #115, .T. ) ;
#160 = DIRECTION ( 'NONE',  ( -0.000000000000000000, 1.000000000000000000, -0.000000000000000000 ) ) ;
#161 = DIRECTION ( 'NONE',  ( 0.000000000000000000, 0.000000000000000000, -1.000000000000000000 ) ) ;
#162 = ADVANCED_FACE ( 'NONE', ( #607 ), #729, .T. ) ;
#163 = ORIENTED_EDGE ( 'NONE', *, *, #877, .T. ) ;
#164 = PLANE ( 'NONE',  #599 ) ;
#165 = DIRECTION ( 'NONE',  ( -3.464846137378011133E-15, -0.000000000000000000, -1.000000000000000000 ) ) ;
#166 = VERTEX_POINT ( 'NONE', #177 ) ;
#167 = EDGE_CURVE ( 'NONE', #578, #784, #96, .T. ) ;
#168 = FACE_OUTER_BOUND ( 'NONE', #667, .T. ) ;
#169 = EDGE_CURVE ( 'NONE', #209, #638, #661, .T. ) ;
#170 = ORIENTED_EDGE ( 'NONE', *, *, #482, .F. ) ;
#171 = DIRECTION ( 'NONE',  ( 0.000000000000000000, 0.000000000000000000, 1.000000000000000000 ) ) ;
#172 = VECTOR ( 'NONE', #165, 1000.000000000000000 ) ;
#173 = AXIS2_PLACEMENT_3D ( 'NONE', #333, #903, #426 ) ;
#174 = AXIS2_PLACEMENT_3D ( 'NONE', #130, #401, #692 ) ;
#175 = DIRECTION ( 'NONE',  ( 1.000000000000000000, 0.000000000000000000, 0.000000000000000000 ) ) ;
#176 = ORIENTED_EDGE ( 'NONE', *, *, #321, .T. ) ;
#177 = CARTESIAN_POINT ( 'NONE',  ( -1.683000000000002272, 0.4999999999999995559, -0.9829999999999995408 ) ) ;
#178 = LINE ( 'NONE', #809, #236 ) ;
#179 = VERTEX_POINT ( 'NONE', #526 ) ;
#180 = DIRECTION ( 'NONE',  ( 1.443685890574175907E-15, 0.000000000000000000, -1.000000000000000000 ) ) ;
#181 = LINE ( 'NONE', #581, #478 ) ;
#182 = ORIENTED_EDGE ( 'NONE', *, *, #349, .T. ) ;
#183 = EDGE_CURVE ( 'NONE', #146, #855, #659, .T. ) ;
#184 = DIRECTION ( 'NONE',  ( -0.000000000000000000, 1.000000000000000000, -0.000000000000000000 ) ) ;
#185 = AXIS2_PLACEMENT_3D ( 'NONE', #501, #415, #300 ) ;
#186 = CIRCLE ( 'NONE', #237, 2.625000000000000000 ) ;
#187 = PLANE ( 'NONE',  #718 ) ;
#188 = ORIENTED_EDGE ( 'NONE', *, *, #321, .F. ) ;
#189 = EDGE_CURVE ( 'NONE', #249, #82, #777, .T. ) ;
#190 = DIRECTION ( 'NONE',  ( 0.000000000000000000, -0.000000000000000000, 1.000000000000000000 ) ) ;
#191 = APPLICATION_PROTOCOL_DEFINITION ( 'draft international standard', 'automotive_design', 1998, #766 ) ;
#192 = CARTESIAN_POINT ( 'NONE',  ( -0.9830000000000003180, 6.500000000000000000, 2.433995891533097922 ) ) ;
#193 = ORIENTED_EDGE ( 'NONE', *, *, #68, .F. ) ;
#194 = FACE_OUTER_BOUND ( 'NONE', #529, .T. ) ;
#195 = ADVANCED_FACE ( 'NONE', ( #253 ), #310, .F. ) ;
#196 = EDGE_CURVE ( 'NONE', #82, #638, #665, .T. ) ;
#197 = CARTESIAN_POINT ( 'NONE',  ( 0.000000000000000000, 6.500000000000000000, 0.000000000000000000 ) ) ;
#198 = EDGE_CURVE ( 'NONE', #255, #516, #736, .T. ) ;
#199 = CARTESIAN_POINT ( 'NONE',  ( -1.683000000000002272, 0.4999999999999995559, -1.682999999999999607 ) ) ;
#200 = FACE_OUTER_BOUND ( 'NONE', #214, .T. ) ;
#201 = EDGE_LOOP ( 'NONE', ( #523, #374, #493, #798 ) ) ;
#202 = CARTESIAN_POINT ( 'NONE',  ( 5.510910596163087583E-16, 6.500000000000000000, 4.500000000000000000 ) ) ;
#203 = DIRECTION ( 'NONE',  ( -0.000000000000000000, 1.000000000000000000, -0.000000000000000000 ) ) ;
#204 = VECTOR ( 'NONE', #457, 1000.000000000000000 ) ;
#205 = LINE ( 'NONE', #769, #822 ) ;
#206 = ORIENTED_EDGE ( 'NONE', *, *, #705, .T. ) ;
#207 = AXIS2_PLACEMENT_3D ( 'NONE', #899, #488, #280 ) ;
#208 = AXIS2_PLACEMENT_3D ( 'NONE', #152, #710, #856 ) ;
#209 = VERTEX_POINT ( 'NONE', #593 ) ;
#210 = LINE ( 'NONE', #218, #850 ) ;
#211 = LINE ( 'NONE', #551, #863 ) ;
#212 = CARTESIAN_POINT ( 'NONE',  ( 0.9830000000000016502, 6.500000000000000000, 2.433995891533097478 ) ) ;
#213 = EDGE_CURVE ( 'NONE', #166, #209, #246, .T. ) ;
#214 = EDGE_LOOP ( 'NONE', ( #442, #533 ) ) ;
#215 = CARTESIAN_POINT ( 'NONE',  ( -0.9830000000000003180, 0.4999999999999995559, -2.433995891533097922 ) ) ;
#216 = CARTESIAN_POINT ( 'NONE',  ( -0.9830000000000003180, 6.500000000000000000, -2.433995891533097922 ) ) ;
#217 = ORIENTED_EDGE ( 'NONE', *, *, #744, .T. ) ;
#218 = CARTESIAN_POINT ( 'NONE',  ( 2.433995891533097922, 0.4999999999999995559, -0.9830000000000012061 ) ) ;
#219 = LINE ( 'NONE', #4, #86 ) ;
#220 = AXIS2_PLACEMENT_3D ( 'NONE', #830, #763, #136 ) ;
#221 = AXIS2_PLACEMENT_3D ( 'NONE', #768, #549, #126 ) ;
#222 = ORIENTED_EDGE ( 'NONE', *, *, #9, .T. ) ;
#223 = AXIS2_PLACEMENT_3D ( 'NONE', #99, #372, #248 ) ;
#224 = AXIS2_PLACEMENT_3D ( 'NONE', #520, #453, #46 ) ;
#225 = PLANE ( 'NONE',  #208 ) ;
#226 = DIRECTION ( 'NONE',  ( 0.000000000000000000, 1.000000000000000000, 0.000000000000000000 ) ) ;
#227 = ORIENTED_EDGE ( 'NONE', *, *, #608, .T. ) ;
#228 = CARTESIAN_POINT ( 'NONE',  ( 0.000000000000000000, 6.500000000000000000, 2.625000000000000000 ) ) ;
#229 = DIRECTION ( 'NONE',  ( -0.000000000000000000, 1.000000000000000000, -0.000000000000000000 ) ) ;
#230 = ADVANCED_FACE ( 'NONE', ( #168 ), #876, .F. ) ;
#231 = ORIENTED_EDGE ( 'NONE', *, *, #198, .T. ) ;
#232 =( NAMED_UNIT ( * ) SI_UNIT ( $, .STERADIAN. ) SOLID_ANGLE_UNIT ( ) );
#233 = EDGE_CURVE ( 'NONE', #655, #249, #891, .T. ) ;
#234 = DIRECTION ( 'NONE',  ( 0.000000000000000000, 0.000000000000000000, -1.000000000000000000 ) ) ;
#235 = VERTEX_POINT ( 'NONE', #322 ) ;
#236 = VECTOR ( 'NONE', #601, 1000.000000000000000 ) ;
#237 = AXIS2_PLACEMENT_3D ( 'NONE', #506, #722, #238 ) ;
#238 = DIRECTION ( 'NONE',  ( 0.000000000000000000, 0.000000000000000000, 1.000000000000000000 ) ) ;
#239 = AXIS2_PLACEMENT_3D ( 'NONE', #329, #547, #613 ) ;
#240 = CARTESIAN_POINT ( 'NONE',  ( -0.9830000000000020943, 6.500000000000000000, 1.683000000000000274 ) ) ;
#241 = EDGE_LOOP ( 'NONE', ( #909, #421, #774, #872 ) ) ;
#242 = EDGE_CURVE ( 'NONE', #432, #119, #530, .T. ) ;
#243 = SURFACE_STYLE_USAGE ( .BOTH. , #356 ) ;
#244 = FACE_OUTER_BOUND ( 'NONE', #272, .T. ) ;
#245 = VERTEX_POINT ( 'NONE', #668 ) ;
#246 = LINE ( 'NONE', #603, #498 ) ;
#247 = ORIENTED_EDGE ( 'NONE', *, *, #590, .F. ) ;
#248 = DIRECTION ( 'NONE',  ( 0.000000000000000000, 0.000000000000000000, -1.000000000000000000 ) ) ;
#249 = VERTEX_POINT ( 'NONE', #747 ) ;
#250 = CARTESIAN_POINT ( 'NONE',  ( 2.433995891533098810, 0.4999999999999995559, 0.9829999999999997629 ) ) ;
#251 = CIRCLE ( 'NONE', #111, 4.500000000000000000 ) ;
#252 = ORIENTED_EDGE ( 'NONE', *, *, #133, .T. ) ;
#253 = FACE_OUTER_BOUND ( 'NONE', #849, .T. ) ;
#254 = LINE ( 'NONE', #662, #396 ) ;
#255 = VERTEX_POINT ( 'NONE', #829 ) ;
#256 = EDGE_CURVE ( 'NONE', #21, #13, #833, .T. ) ;
#257 = CARTESIAN_POINT ( 'NONE',  ( -1.683000000000002272, 0.4999999999999995559, -0.9829999999999995408 ) ) ;
#258 = ADVANCED_FACE ( 'NONE', ( #59, #621 ), #391, .F. ) ;
#259 = DIRECTION ( 'NONE',  ( 0.000000000000000000, 0.000000000000000000, 1.000000000000000000 ) ) ;
#260 = VERTEX_POINT ( 'NONE', #135 ) ;
#261 = DIRECTION ( 'NONE',  ( -0.000000000000000000, 1.000000000000000000, -0.000000000000000000 ) ) ;
#262 = VECTOR ( 'NONE', #81, 1000.000000000000000 ) ;
#263 = AXIS2_PLACEMENT_3D ( 'NONE', #387, #49, #883 ) ;
#264 = DIRECTION ( 'NONE',  ( -0.000000000000000000, 1.000000000000000000, -0.000000000000000000 ) ) ;
#265 = ORIENTED_EDGE ( 'NONE', *, *, #286, .F. ) ;
#266 = EDGE_CURVE ( 'NONE', #832, #260, #335, .T. ) ;
#267 = EDGE_CURVE ( 'NONE', #871, #905, #52, .T. ) ;
#268 = CARTESIAN_POINT ( 'NONE',  ( -0.9830000000000003180, 0.4999999999999995559, 2.433995891533097922 ) ) ;
#269 = ADVANCED_FACE ( 'NONE', ( #194 ), #273, .F. ) ;
#270 = CARTESIAN_POINT ( 'NONE',  ( 0.9830000000000029825, 0.4999999999999995559, -1.683000000000000052 ) ) ;
#271 = CARTESIAN_POINT ( 'NONE',  ( 0.000000000000000000, -6.500000000000000000, -4.500000000000000000 ) ) ;
#272 = EDGE_LOOP ( 'NONE', ( #466, #365, #802, #217 ) ) ;
#273 = CYLINDRICAL_SURFACE ( 'NONE', #239, 2.625000000000000000 ) ;
#274 = CARTESIAN_POINT ( 'NONE',  ( 0.000000000000000000, 6.500000000000000000, 0.000000000000000000 ) ) ;
#275 = DIRECTION ( 'NONE',  ( 0.000000000000000000, 0.000000000000000000, -1.000000000000000000 ) ) ;
#276 = CARTESIAN_POINT ( 'NONE',  ( 1.683000000000002716, 0.4999999999999995559, 0.9829999999999999849 ) ) ;
#277 = ORIENTED_EDGE ( 'NONE', *, *, #752, .F. ) ;
#278 = CYLINDRICAL_SURFACE ( 'NONE', #775, 4.500000000000000000 ) ;
#279 = CIRCLE ( 'NONE', #131, 2.644000000000000128 ) ;
#280 = DIRECTION ( 'NONE',  ( 0.000000000000000000, 0.000000000000000000, -1.000000000000000000 ) ) ;
#281 = FILL_AREA_STYLE ('',( #342 ) ) ;
#282 = AXIS2_PLACEMENT_3D ( 'NONE', #448, #102, #171 ) ;
#283 = ORIENTED_EDGE ( 'NONE', *, *, #266, .F. ) ;
#284 = FACE_OUTER_BOUND ( 'NONE', #490, .T. ) ;
#285 = DIRECTION ( 'NONE',  ( 0.000000000000000000, -1.000000000000000000, 0.000000000000000000 ) ) ;
#286 = EDGE_CURVE ( 'NONE', #21, #348, #825, .T. ) ;
#287 = ORIENTED_EDGE ( 'NONE', *, *, #410, .F. ) ;
#288 = DIRECTION ( 'NONE',  ( -0.000000000000000000, 1.000000000000000000, -0.000000000000000000 ) ) ;
#289 = CARTESIAN_POINT ( 'NONE',  ( 1.683000000000002716, 6.500000000000000000, -1.683000000000000052 ) ) ;
#290 = ORIENTED_EDGE ( 'NONE', *, *, #378, .T. ) ;
#291 = CARTESIAN_POINT ( 'NONE',  ( 0.000000000000000000, 6.500000000000000000, 0.000000000000000000 ) ) ;
#292 = CIRCLE ( 'NONE', #496, 2.625000000000000000 ) ;
#293 = ORIENTED_EDGE ( 'NONE', *, *, #783, .F. ) ;
#294 = VECTOR ( 'NONE', #41, 1000.000000000000000 ) ;
#295 = ADVANCED_FACE ( 'NONE', ( #694 ), #896, .F. ) ;
#296 = EDGE_CURVE ( 'NONE', #355, #362, #347, .T. ) ;
#297 = CARTESIAN_POINT ( 'NONE',  ( 0.000000000000000000, 0.4999999999999995559, 0.000000000000000000 ) ) ;
#298 = EDGE_LOOP ( 'NONE', ( #283, #69, #231, #206 ) ) ;
#299 = DIRECTION ( 'NONE',  ( 0.000000000000000000, 0.000000000000000000, -1.000000000000000000 ) ) ;
#300 = DIRECTION ( 'NONE',  ( 0.000000000000000000, 0.000000000000000000, -1.000000000000000000 ) ) ;
#301 = VERTEX_POINT ( 'NONE', #756 ) ;
#302 = CARTESIAN_POINT ( 'NONE',  ( -1.586500000000000465, -6.500000000000000000, 2.115124996306364746 ) ) ;
#303 = FACE_OUTER_BOUND ( 'NONE', #95, .T. ) ;
#304 = EDGE_CURVE ( 'NONE', #13, #334, #839, .T. ) ;
#305 = ORIENTED_EDGE ( 'NONE', *, *, #514, .T. ) ;
#306 = AXIS2_PLACEMENT_3D ( 'NONE', #536, #820, #337 ) ;
#307 = MECHANICAL_DESIGN_GEOMETRIC_PRESENTATION_REPRESENTATION (  '', ( #733 ), #525 ) ;
#308 = LINE ( 'NONE', #884, #614 ) ;
#309 = ORIENTED_EDGE ( 'NONE', *, *, #548, .T. ) ;
#310 = PLANE ( 'NONE',  #399 ) ;
#311 = DIRECTION ( 'NONE',  ( 0.000000000000000000, 0.000000000000000000, 1.000000000000000000 ) ) ;
#312 = ORIENTED_EDGE ( 'NONE', *, *, #25, .F. ) ;
#313 = CARTESIAN_POINT ( 'NONE',  ( 0.000000000000000000, 6.500000000000000000, -4.500000000000000000 ) ) ;
#314 = DIRECTION ( 'NONE',  ( 0.000000000000000000, 0.000000000000000000, 1.000000000000000000 ) ) ;
#315 = ORIENTED_EDGE ( 'NONE', *, *, #589, .T. ) ;
#316 = DIRECTION ( 'NONE',  ( 0.000000000000000000, -0.000000000000000000, -1.000000000000000000 ) ) ;
#317 = VECTOR ( 'NONE', #184, 1000.000000000000000 ) ;
#318 = EDGE_CURVE ( 'NONE', #107, #13, #670, .T. ) ;
#319 = FACE_OUTER_BOUND ( 'NONE', #646, .T. ) ;
#320 = ORIENTED_EDGE ( 'NONE', *, *, #844, .T. ) ;
#321 = EDGE_CURVE ( 'NONE', #245, #107, #703, .T. ) ;
#322 = CARTESIAN_POINT ( 'NONE',  ( -1.586500000000000465, -0.4999999999999995559, -2.115124996306364746 ) ) ;
#323 = ORIENTED_EDGE ( 'NONE', *, *, #363, .T. ) ;
#324 = PRODUCT ( 'stepper_motor_coupler', 'stepper_motor_coupler', '', ( #331 ) ) ;
#325 = CARTESIAN_POINT ( 'NONE',  ( -1.683000000000002272, 6.500000000000000000, -1.682999999999999607 ) ) ;
#326 = CARTESIAN_POINT ( 'NONE',  ( 2.433995891533098810, 0.4999999999999995559, 0.9829999999999997629 ) ) ;
#327 = ADVANCED_FACE ( 'NONE', ( #757 ), #556, .F. ) ;
#328 = ORIENTED_EDGE ( 'NONE', *, *, #511, .F. ) ;
#329 = CARTESIAN_POINT ( 'NONE',  ( 0.000000000000000000, 0.4999999999999995559, 0.000000000000000000 ) ) ;
#330 = LINE ( 'NONE', #270, #554 ) ;
#331 = PRODUCT_CONTEXT ( 'NONE', #766, 'mechanical' ) ;
#332 = AXIS2_PLACEMENT_3D ( 'NONE', #20, #565, #79 ) ;
#333 = CARTESIAN_POINT ( 'NONE',  ( 0.000000000000000000, 6.500000000000000000, 0.000000000000000000 ) ) ;
#334 = VERTEX_POINT ( 'NONE', #404 ) ;
#335 = LINE ( 'NONE', #202, #384 ) ;
#336 = CARTESIAN_POINT ( 'NONE',  ( -1.586500000000000465, -0.4999999999999995559, 2.115124996306364746 ) ) ;
#337 = DIRECTION ( 'NONE',  ( 0.000000000000000000, 0.000000000000000000, 1.000000000000000000 ) ) ;
#338 = ORIENTED_EDGE ( 'NONE', *, *, #590, .T. ) ;
#339 = VERTEX_POINT ( 'NONE', #344 ) ;
#340 = FACE_OUTER_BOUND ( 'NONE', #518, .T. ) ;
#341 = CARTESIAN_POINT ( 'NONE',  ( -0.9830000000000003180, 0.4999999999999995559, -2.433995891533097922 ) ) ;
#342 = FILL_AREA_STYLE_COLOUR ( '', #688 ) ;
#343 = ORIENTED_EDGE ( 'NONE', *, *, #726, .T. ) ;
#344 = CARTESIAN_POINT ( 'NONE',  ( -0.9830000000000005400, 6.500000000000000000, 2.433995891533097922 ) ) ;
#345 = ADVANCED_FACE ( 'NONE', ( #340 ), #626, .F. ) ;
#346 = LINE ( 'NONE', #431, #461 ) ;
#347 = CIRCLE ( 'NONE', #463, 2.644000000000000128 ) ;
#348 = VERTEX_POINT ( 'NONE', #847 ) ;
#349 = EDGE_CURVE ( 'NONE', #18, #578, #690, .T. ) ;
#350 = DIRECTION ( 'NONE',  ( -0.000000000000000000, -1.000000000000000000, -0.000000000000000000 ) ) ;
#351 = DIRECTION ( 'NONE',  ( -0.000000000000000000, 1.000000000000000000, -0.000000000000000000 ) ) ;
#352 = ORIENTED_EDGE ( 'NONE', *, *, #514, .F. ) ;
#353 = DIRECTION ( 'NONE',  ( -1.000000000000000000, 0.000000000000000000, 1.732423068689012075E-15 ) ) ;
#354 = CARTESIAN_POINT ( 'NONE',  ( 0.000000000000000000, 6.500000000000000000, 0.000000000000000000 ) ) ;
#355 = VERTEX_POINT ( 'NONE', #491 ) ;
#356 = SURFACE_SIDE_STYLE ('',( #642 ) ) ;
#357 = CARTESIAN_POINT ( 'NONE',  ( 0.9830000000000003180, 0.4999999999999995559, -2.433995891533098366 ) ) ;
#358 = ORIENTED_EDGE ( 'NONE', *, *, #419, .F. ) ;
#359 = AXIS2_PLACEMENT_3D ( 'NONE', #500, #859, #656 ) ;
#360 = FACE_OUTER_BOUND ( 'NONE', #134, .T. ) ;
#361 = DIRECTION ( 'NONE',  ( 0.000000000000000000, 0.000000000000000000, 1.000000000000000000 ) ) ;
#362 = VERTEX_POINT ( 'NONE', #336 ) ;
#363 = EDGE_CURVE ( 'NONE', #807, #394, #210, .T. ) ;
#364 = DIRECTION ( 'NONE',  ( 0.000000000000000000, 1.000000000000000000, 0.000000000000000000 ) ) ;
#365 = ORIENTED_EDGE ( 'NONE', *, *, #781, .F. ) ;
#366 = DIRECTION ( 'NONE',  ( 0.000000000000000000, 0.000000000000000000, 1.000000000000000000 ) ) ;
#367 = CARTESIAN_POINT ( 'NONE',  ( -0.9830000000000005400, 0.4999999999999995559, 2.433995891533097922 ) ) ;
#368 = ORIENTED_EDGE ( 'NONE', *, *, #9, .F. ) ;
#369 = AXIS2_PLACEMENT_3D ( 'NONE', #507, #351, #87 ) ;
#370 = VECTOR ( 'NONE', #380, 1000.000000000000000 ) ;
#371 = CARTESIAN_POINT ( 'NONE',  ( -1.683000000000001828, 0.4999999999999995559, 0.9829999999999999849 ) ) ;
#372 = DIRECTION ( 'NONE',  ( -0.000000000000000000, -1.000000000000000000, -0.000000000000000000 ) ) ;
#373 = ORIENTED_EDGE ( 'NONE', *, *, #267, .F. ) ;
#374 = ORIENTED_EDGE ( 'NONE', *, *, #844, .F. ) ;
#375 = DIRECTION ( 'NONE',  ( 0.000000000000000000, 0.000000000000000000, 1.000000000000000000 ) ) ;
#376 = CARTESIAN_POINT ( 'NONE',  ( 0.9830000000000003180, 6.500000000000000000, -2.433995891533098366 ) ) ;
#377 = ORIENTED_EDGE ( 'NONE', *, *, #167, .T. ) ;
#378 = EDGE_CURVE ( 'NONE', #48, #784, #53, .T. ) ;
#379 = EDGE_CURVE ( 'NONE', #572, #755, #330, .T. ) ;
#380 = DIRECTION ( 'NONE',  ( -1.000000000000000000, 0.000000000000000000, -1.443685890574176104E-15 ) ) ;
#381 = DIRECTION ( 'NONE',  ( 0.000000000000000000, 1.000000000000000000, 0.000000000000000000 ) ) ;
#382 = ORIENTED_EDGE ( 'NONE', *, *, #242, .F. ) ;
#383 = DIRECTION ( 'NONE',  ( 0.000000000000000000, 1.000000000000000000, 0.000000000000000000 ) ) ;
#384 = VECTOR ( 'NONE', #403, 1000.000000000000000 ) ;
#385 = SURFACE_STYLE_USAGE ( .BOTH. , #609 ) ;
#386 = ORIENTED_EDGE ( 'NONE', *, *, #744, .F. ) ;
#387 = CARTESIAN_POINT ( 'NONE',  ( -1.683000000000002272, 0.4999999999999995559, 1.682999999999999607 ) ) ;
#388 = ADVANCED_FACE ( 'NONE', ( #776 ), #278, .T. ) ;
#389 = DIRECTION ( 'NONE',  ( -3.464846137378011133E-15, -0.000000000000000000, -1.000000000000000000 ) ) ;
#390 = ORIENTED_EDGE ( 'NONE', *, *, #677, .T. ) ;
#391 = PLANE ( 'NONE',  #113 ) ;
#392 = CARTESIAN_POINT ( 'NONE',  ( 0.9830000000000016502, 6.500000000000000000, 2.433995891533097478 ) ) ;
#393 = DIRECTION ( 'NONE',  ( -0.000000000000000000, -1.000000000000000000, -0.000000000000000000 ) ) ;
#394 = VERTEX_POINT ( 'NONE', #897 ) ;
#395 = CARTESIAN_POINT ( 'NONE',  ( -2.433995891533097922, 0.4999999999999995559, 0.9830000000000005400 ) ) ;
#396 = VECTOR ( 'NONE', #522, 1000.000000000000000 ) ;
#397 = DIRECTION ( 'NONE',  ( 0.000000000000000000, 0.000000000000000000, 1.000000000000000000 ) ) ;
#398 = CIRCLE ( 'NONE', #221, 0.6999999999999998446 ) ;
#399 = AXIS2_PLACEMENT_3D ( 'NONE', #799, #591, #817 ) ;
#400 = LINE ( 'NONE', #611, #145 ) ;
#401 = DIRECTION ( 'NONE',  ( 0.000000000000000000, 1.000000000000000000, 0.000000000000000000 ) ) ;
#402 = ORIENTED_EDGE ( 'NONE', *, *, #363, .F. ) ;
#403 = DIRECTION ( 'NONE',  ( -0.000000000000000000, -1.000000000000000000, -0.000000000000000000 ) ) ;
#404 = CARTESIAN_POINT ( 'NONE',  ( 0.9830000000000027605, 6.500000000000000000, 1.683000000000000274 ) ) ;
#405 = CYLINDRICAL_SURFACE ( 'NONE', #306, 0.6999999999999998446 ) ;
#406 = DIRECTION ( 'NONE',  ( -0.000000000000000000, -0.000000000000000000, -1.000000000000000000 ) ) ;
#407 = ORIENTED_EDGE ( 'NONE', *, *, #37, .F. ) ;
#408 = CARTESIAN_POINT ( 'NONE',  ( 1.586500000000000465, -6.500000000000000000, -2.115124996306364746 ) ) ;
#409 = CARTESIAN_POINT ( 'NONE',  ( 0.000000000000000000, 0.4999999999999995559, 0.000000000000000000 ) ) ;
#410 = EDGE_CURVE ( 'NONE', #784, #394, #819, .T. ) ;
#411 = ORIENTED_EDGE ( 'NONE', *, *, #92, .F. ) ;
#412 = DIRECTION ( 'NONE',  ( -0.000000000000000000, -0.000000000000000000, 1.000000000000000000 ) ) ;
#413 = VECTOR ( 'NONE', #389, 1000.000000000000000 ) ;
#414 = CIRCLE ( 'NONE', #596, 2.625000000000000000 ) ;
#415 = DIRECTION ( 'NONE',  ( 0.000000000000000000, -1.000000000000000000, 0.000000000000000000 ) ) ;
#416 = AXIS2_PLACEMENT_3D ( 'NONE', #27, #517, #299 ) ;
#417 = ORIENTED_EDGE ( 'NONE', *, *, #715, .F. ) ;
#418 = CARTESIAN_POINT ( 'NONE',  ( -1.683000000000002272, 6.500000000000000000, -0.9829999999999995408 ) ) ;
#419 = EDGE_CURVE ( 'NONE', #334, #48, #398, .T. ) ;
#420 = DIRECTION ( 'NONE',  ( 0.000000000000000000, 0.000000000000000000, 1.000000000000000000 ) ) ;
#421 = ORIENTED_EDGE ( 'NONE', *, *, #159, .F. ) ;
#422 = LINE ( 'NONE', #22, #645 ) ;
#423 = CARTESIAN_POINT ( 'NONE',  ( 0.000000000000000000, 6.500000000000000000, 0.000000000000000000 ) ) ;
#424 = ORIENTED_EDGE ( 'NONE', *, *, #167, .F. ) ;
#425 =( NAMED_UNIT ( * ) PLANE_ANGLE_UNIT ( ) SI_UNIT ( $, .RADIAN. ) );
#426 = DIRECTION ( 'NONE',  ( 0.000000000000000000, 0.000000000000000000, 1.000000000000000000 ) ) ;
#427 =( GEOMETRIC_REPRESENTATION_CONTEXT ( 3 ) GLOBAL_UNCERTAINTY_ASSIGNED_CONTEXT ( ( #468 ) ) GLOBAL_UNIT_ASSIGNED_CONTEXT ( ( #587, #800, #450 ) ) REPRESENTATION_CONTEXT ( 'NONE', 'WORKASPACE' ) );
#428 = VERTEX_POINT ( 'NONE', #140 ) ;
#429 = CIRCLE ( 'NONE', #881, 2.625000000000000444 ) ;
#430 = PRESENTATION_STYLE_ASSIGNMENT (( #243 ) ) ;
#431 = CARTESIAN_POINT ( 'NONE',  ( -1.683000000000001828, 6.500000000000000000, 0.9830000000000003180 ) ) ;
#432 = VERTEX_POINT ( 'NONE', #408 ) ;
#433 = DIRECTION ( 'NONE',  ( 1.000000000000000000, 0.000000000000000000, 1.732423068689006947E-15 ) ) ;
#434 = EDGE_CURVE ( 'NONE', #440, #655, #632, .T. ) ;
#435 = CARTESIAN_POINT ( 'NONE',  ( -1.683000000000002272, 0.4999999999999995559, 1.682999999999999607 ) ) ;
#436 = ORIENTED_EDGE ( 'NONE', *, *, #608, .F. ) ;
#437 = ORIENTED_EDGE ( 'NONE', *, *, #580, .T. ) ;
#438 = ADVANCED_FACE ( 'NONE', ( #284 ), #622, .F. ) ;
#439 = CARTESIAN_POINT ( 'NONE',  ( 0.000000000000000000, -0.4999999999999995559, 0.000000000000000000 ) ) ;
#440 = VERTEX_POINT ( 'NONE', #215 ) ;
#441 = CARTESIAN_POINT ( 'NONE',  ( 0.000000000000000000, 0.4999999999999995559, 0.000000000000000000 ) ) ;
#442 = ORIENTED_EDGE ( 'NONE', *, *, #868, .T. ) ;
#443 = STYLED_ITEM ( 'NONE', ( #117 ), #477 ) ;
#444 = ORIENTED_EDGE ( 'NONE', *, *, #620, .F. ) ;
#445 = VECTOR ( 'NONE', #56, 1000.000000000000000 ) ;
#446 = AXIS2_PLACEMENT_3D ( 'NONE', #435, #94, #314 ) ;
#447 = AXIS2_PLACEMENT_3D ( 'NONE', #808, #383, #375 ) ;
#448 = CARTESIAN_POINT ( 'NONE',  ( 0.000000000000000000, 0.4999999999999995559, 0.000000000000000000 ) ) ;
#449 = EDGE_CURVE ( 'NONE', #502, #355, #143, .T. ) ;
#450 =( NAMED_UNIT ( * ) SI_UNIT ( $, .STERADIAN. ) SOLID_ANGLE_UNIT ( ) );
#451 = VERTEX_POINT ( 'NONE', #636 ) ;
#452 = ADVANCED_FACE ( 'NONE', ( #6 ), #67, .F. ) ;
#453 = DIRECTION ( 'NONE',  ( -0.000000000000000000, 1.000000000000000000, -0.000000000000000000 ) ) ;
#454 = CARTESIAN_POINT ( 'NONE',  ( 5.510910596163087583E-16, 6.500000000000000000, 4.500000000000000000 ) ) ;
#455 = EDGE_LOOP ( 'NONE', ( #26, #386, #368, #750 ) ) ;
#456 = DIRECTION ( 'NONE',  ( -1.000000000000000000, 0.000000000000000000, -1.443685890574176104E-15 ) ) ;
#457 = DIRECTION ( 'NONE',  ( -0.000000000000000000, 1.000000000000000000, -0.000000000000000000 ) ) ;
#458 = ORIENTED_EDGE ( 'NONE', *, *, #810, .F. ) ;
#459 = AXIS2_PLACEMENT_3D ( 'NONE', #758, #888, #259 ) ;
#460 = CARTESIAN_POINT ( 'NONE',  ( 1.586500000000000687, -6.500000000000000000, 2.115124996306364746 ) ) ;
#461 = VECTOR ( 'NONE', #708, 1000.000000000000000 ) ;
#462 = AXIS2_PLACEMENT_3D ( 'NONE', #149, #83, #353 ) ;
#463 = AXIS2_PLACEMENT_3D ( 'NONE', #751, #543, #471 ) ;
#464 = CARTESIAN_POINT ( 'NONE',  ( 0.000000000000000000, 0.000000000000000000, 0.000000000000000000 ) ) ;
#465 = FACE_OUTER_BOUND ( 'NONE', #241, .T. ) ;
#466 = ORIENTED_EDGE ( 'NONE', *, *, #47, .T. ) ;
#467 = DIRECTION ( 'NONE',  ( 1.732423068689007144E-15, 0.000000000000000000, -1.000000000000000000 ) ) ;
#468 = UNCERTAINTY_MEASURE_WITH_UNIT (LENGTH_MEASURE( 1.000000000000000082E-05 ), #587, 'distance_accuracy_value', 'NONE');
#469 = FACE_OUTER_BOUND ( 'NONE', #35, .T. ) ;
#470 = ORIENTED_EDGE ( 'NONE', *, *, #677, .F. ) ;
#471 = DIRECTION ( 'NONE',  ( 0.000000000000000000, 0.000000000000000000, -1.000000000000000000 ) ) ;
#472 = CARTESIAN_POINT ( 'NONE',  ( 0.000000000000000000, 6.500000000000000000, 0.000000000000000000 ) ) ;
#473 = CARTESIAN_POINT ( 'NONE',  ( 0.000000000000000000, 6.500000000000000000, 0.000000000000000000 ) ) ;
#474 = ORIENTED_EDGE ( 'NONE', *, *, #875, .T. ) ;
#475 = EDGE_LOOP ( 'NONE', ( #867, #402, #629, #377 ) ) ;
#476 = CARTESIAN_POINT ( 'NONE',  ( 0.9830000000000016502, 0.4999999999999995559, 2.433995891533097478 ) ) ;
#477 = ADVANCED_BREP_SHAPE_REPRESENTATION ( 'stepper_motor_coupler', ( #23, #14 ), #427 ) ;
#478 = VECTOR ( 'NONE', #805, 1000.000000000000000 ) ;
#479 = DIRECTION ( 'NONE',  ( -0.000000000000000000, 1.000000000000000000, -0.000000000000000000 ) ) ;
#480 = CIRCLE ( 'NONE', #416, 0.6999999999999998446 ) ;
#481 = FACE_OUTER_BOUND ( 'NONE', #846, .T. ) ;
#482 = EDGE_CURVE ( 'NONE', #235, #451, #279, .T. ) ;
#483 = ORIENTED_EDGE ( 'NONE', *, *, #233, .F. ) ;
#484 = ADVANCED_FACE ( 'NONE', ( #465 ), #627, .T. ) ;
#485 = ORIENTED_EDGE ( 'NONE', *, *, #812, .T. ) ;
#486 = DIRECTION ( 'NONE',  ( 1.000000000000000000, 0.000000000000000000, 0.000000000000000000 ) ) ;
#487 = EDGE_CURVE ( 'NONE', #502, #432, #211, .T. ) ;
#488 = DIRECTION ( 'NONE',  ( 0.000000000000000000, -1.000000000000000000, 0.000000000000000000 ) ) ;
#489 = ORIENTED_EDGE ( 'NONE', *, *, #674, .T. ) ;
#490 = EDGE_LOOP ( 'NONE', ( #515, #91, #563, #320 ) ) ;
#491 = CARTESIAN_POINT ( 'NONE',  ( 1.586500000000000687, -0.4999999999999995559, 2.115124996306364746 ) ) ;
#492 = CARTESIAN_POINT ( 'NONE',  ( 0.9830000000000003180, 0.4999999999999995559, -2.433995891533098366 ) ) ;
#493 = ORIENTED_EDGE ( 'NONE', *, *, #449, .F. ) ;
#494 = EDGE_CURVE ( 'NONE', #119, #45, #598, .T. ) ;
#495 = DIRECTION ( 'NONE',  ( 0.000000000000000000, 1.000000000000000000, 0.000000000000000000 ) ) ;
#496 = AXIS2_PLACEMENT_3D ( 'NONE', #354, #12, #577 ) ;
#497 = DIRECTION ( 'NONE',  ( -0.000000000000000000, 1.000000000000000000, -0.000000000000000000 ) ) ;
#498 = VECTOR ( 'NONE', #456, 1000.000000000000000 ) ;
#499 = ORIENTED_EDGE ( 'NONE', *, *, #379, .T. ) ;
#500 = CARTESIAN_POINT ( 'NONE',  ( 0.000000000000000000, 0.4999999999999995559, 0.000000000000000000 ) ) ;
#501 = CARTESIAN_POINT ( 'NONE',  ( 0.000000000000000000, -6.500000000000000000, 0.000000000000000000 ) ) ;
#502 = VERTEX_POINT ( 'NONE', #835 ) ;
#503 = CARTESIAN_POINT ( 'NONE',  ( 0.000000000000000000, 0.4999999999999995559, 0.000000000000000000 ) ) ;
#504 = CARTESIAN_POINT ( 'NONE',  ( 2.433995891533098810, 6.500000000000000000, 0.9829999999999997629 ) ) ;
#505 = ORIENTED_EDGE ( 'NONE', *, *, #487, .F. ) ;
#506 = CARTESIAN_POINT ( 'NONE',  ( 0.000000000000000000, 0.4999999999999995559, 0.000000000000000000 ) ) ;
#507 = CARTESIAN_POINT ( 'NONE',  ( 0.000000000000000000, 0.4999999999999995559, 0.000000000000000000 ) ) ;
#508 = AXIS2_PLACEMENT_3D ( 'NONE', #605, #61, #764 ) ;
#509 = ORIENTED_EDGE ( 'NONE', *, *, #266, .T. ) ;
#510 = VECTOR ( 'NONE', #761, 1000.000000000000000 ) ;
#511 = EDGE_CURVE ( 'NONE', #832, #255, #630, .T. ) ;
#512 = DIRECTION ( 'NONE',  ( 0.000000000000000000, -1.000000000000000000, 0.000000000000000000 ) ) ;
#513 = DIRECTION ( 'NONE',  ( -0.000000000000000000, 1.000000000000000000, -0.000000000000000000 ) ) ;
#514 = EDGE_CURVE ( 'NONE', #807, #428, #205, .T. ) ;
#515 = ORIENTED_EDGE ( 'NONE', *, *, #494, .T. ) ;
#516 = VERTEX_POINT ( 'NONE', #271 ) ;
#517 = DIRECTION ( 'NONE',  ( -0.000000000000000000, -1.000000000000000000, 0.000000000000000000 ) ) ;
#518 = EDGE_LOOP ( 'NONE', ( #436, #170, #528, #641 ) ) ;
#519 = PRODUCT_RELATED_PRODUCT_CATEGORY ( 'part', '', ( #324 ) ) ;
#520 = CARTESIAN_POINT ( 'NONE',  ( 0.000000000000000000, 0.4999999999999995559, 0.000000000000000000 ) ) ;
#521 = ADVANCED_FACE ( 'NONE', ( #892 ), #187, .T. ) ;
#522 = DIRECTION ( 'NONE',  ( -0.000000000000000000, -1.000000000000000000, -0.000000000000000000 ) ) ;
#523 = ORIENTED_EDGE ( 'NONE', *, *, #242, .T. ) ;
#524 = PRODUCT_DEFINITION_FORMATION_WITH_SPECIFIED_SOURCE ( 'ANY', '', #324, .NOT_KNOWN. ) ;
#525 =( GEOMETRIC_REPRESENTATION_CONTEXT ( 3 ) GLOBAL_UNCERTAINTY_ASSIGNED_CONTEXT ( ( #610 ) ) GLOBAL_UNIT_ASSIGNED_CONTEXT ( ( #15, #425, #232 ) ) REPRESENTATION_CONTEXT ( 'NONE', 'WORKASPACE' ) );
#526 = CARTESIAN_POINT ( 'NONE',  ( 0.9830000000000003180, 6.500000000000000000, -2.433995891533098366 ) ) ;
#527 = FACE_OUTER_BOUND ( 'NONE', #32, .T. ) ;
#528 = ORIENTED_EDGE ( 'NONE', *, *, #37, .T. ) ;
#529 = EDGE_LOOP ( 'NONE', ( #312, #176, #85, #709 ) ) ;
#530 = LINE ( 'NONE', #738, #866 ) ;
#531 = CARTESIAN_POINT ( 'NONE',  ( 1.683000000000002716, 0.4999999999999995559, 0.9829999999999999849 ) ) ;
#532 = ADVANCED_FACE ( 'NONE', ( #481 ), #71, .T. ) ;
#533 = ORIENTED_EDGE ( 'NONE', *, *, #511, .T. ) ;
#534 = DIRECTION ( 'NONE',  ( 0.000000000000000000, 0.000000000000000000, -1.000000000000000000 ) ) ;
#535 = SURFACE_STYLE_FILL_AREA ( #818 ) ;
#536 = CARTESIAN_POINT ( 'NONE',  ( 1.683000000000002716, 0.4999999999999995559, -1.683000000000000052 ) ) ;
#537 = ORIENTED_EDGE ( 'NONE', *, *, #753, .F. ) ;
#538 = DIRECTION ( 'NONE',  ( 2.309897424918675929E-15, 0.000000000000000000, 1.000000000000000000 ) ) ;
#539 = AXIS2_PLACEMENT_3D ( 'NONE', #423, #7, #161 ) ;
#540 = FILL_AREA_STYLE_COLOUR ( '', #732 ) ;
#541 = DIRECTION ( 'NONE',  ( 0.000000000000000000, -1.000000000000000000, 0.000000000000000000 ) ) ;
#542 = ORIENTED_EDGE ( 'NONE', *, *, #296, .T. ) ;
#543 = DIRECTION ( 'NONE',  ( 0.000000000000000000, -1.000000000000000000, 0.000000000000000000 ) ) ;
#544 = CARTESIAN_POINT ( 'NONE',  ( 1.683000000000002716, 0.4999999999999995559, 0.9829999999999999849 ) ) ;
#545 = DIRECTION ( 'NONE',  ( -0.000000000000000000, 1.000000000000000000, -0.000000000000000000 ) ) ;
#546 = VERTEX_POINT ( 'NONE', #137 ) ;
#547 = DIRECTION ( 'NONE',  ( -0.000000000000000000, 1.000000000000000000, -0.000000000000000000 ) ) ;
#548 = EDGE_CURVE ( 'NONE', #885, #339, #128, .T. ) ;
#549 = DIRECTION ( 'NONE',  ( -0.000000000000000000, -1.000000000000000000, 0.000000000000000000 ) ) ;
#550 = ADVANCED_FACE ( 'NONE', ( #469 ), #405, .T. ) ;
#551 = CARTESIAN_POINT ( 'NONE',  ( 1.586500000000000465, -0.4999999999999995559, -2.115124996306364746 ) ) ;
#552 = ORIENTED_EDGE ( 'NONE', *, *, #256, .T. ) ;
#553 = VERTEX_POINT ( 'NONE', #118 ) ;
#554 = VECTOR ( 'NONE', #77, 1000.000000000000000 ) ;
#555 = AXIS2_PLACEMENT_3D ( 'NONE', #289, #17, #361 ) ;
#556 = PLANE ( 'NONE',  #220 ) ;
#557 = DIRECTION ( 'NONE',  ( 0.000000000000000000, 0.000000000000000000, 1.000000000000000000 ) ) ;
#558 = ORIENTED_EDGE ( 'NONE', *, *, #878, .T. ) ;
#559 = ORIENTED_EDGE ( 'NONE', *, *, #812, .F. ) ;
#560 = DIRECTION ( 'NONE',  ( 0.000000000000000000, 0.000000000000000000, -1.000000000000000000 ) ) ;
#561 = LINE ( 'NONE', #644, #147 ) ;
#562 = EDGE_CURVE ( 'NONE', #572, #743, #827, .T. ) ;
#563 = ORIENTED_EDGE ( 'NONE', *, *, #296, .F. ) ;
#564 = DIRECTION ( 'NONE',  ( -0.000000000000000000, -1.000000000000000000, -0.000000000000000000 ) ) ;
#565 = DIRECTION ( 'NONE',  ( -0.000000000000000000, -1.000000000000000000, -0.000000000000000000 ) ) ;
#566 = ORIENTED_EDGE ( 'NONE', *, *, #198, .F. ) ;
#567 = CARTESIAN_POINT ( 'NONE',  ( 0.9830000000000027605, 0.4999999999999995559, 1.683000000000000274 ) ) ;
#568 = AXIS2_PLACEMENT_3D ( 'NONE', #870, #34, #311 ) ;
#569 = CIRCLE ( 'NONE', #173, 2.625000000000000000 ) ;
#570 = CARTESIAN_POINT ( 'NONE',  ( -0.9830000000000020943, 0.4999999999999995559, 1.683000000000000274 ) ) ;
#571 = VECTOR ( 'NONE', #261, 1000.000000000000000 ) ;
#572 = VERTEX_POINT ( 'NONE', #50 ) ;
#573 = CARTESIAN_POINT ( 'NONE',  ( 0.9830000000000016502, 0.4999999999999995559, 2.433995891533097478 ) ) ;
#574 = LINE ( 'NONE', #640, #30 ) ;
#575 = EDGE_LOOP ( 'NONE', ( #837, #338, #787, #157, #811, #222, #740, #343, #485, #57, #770, #836, #182, #10, #305, #390, #654 ) ) ;
#576 = DIRECTION ( 'NONE',  ( 0.000000000000000000, 0.000000000000000000, -1.000000000000000000 ) ) ;
#577 = DIRECTION ( 'NONE',  ( 0.000000000000000000, 0.000000000000000000, 1.000000000000000000 ) ) ;
#578 = VERTEX_POINT ( 'NONE', #326 ) ;
#579 = PLANE ( 'NONE',  #462 ) ;
#580 = EDGE_CURVE ( 'NONE', #861, #339, #696, .T. ) ;
#581 = CARTESIAN_POINT ( 'NONE',  ( 1.683000000000002716, 6.500000000000000000, -0.9829999999999999849 ) ) ;
#582 = CIRCLE ( 'NONE', #332, 0.6999999999999998446 ) ;
#583 = AXIS2_PLACEMENT_3D ( 'NONE', #600, #180, #886 ) ;
#584 = ORIENTED_EDGE ( 'NONE', *, *, #196, .T. ) ;
#585 = VECTOR ( 'NONE', #901, 1000.000000000000000 ) ;
#586 = DIRECTION ( 'NONE',  ( 0.000000000000000000, 0.000000000000000000, 1.000000000000000000 ) ) ;
#587 =( LENGTH_UNIT ( ) NAMED_UNIT ( * ) SI_UNIT ( .MILLI., .METRE. ) );
#588 = ORIENTED_EDGE ( 'NONE', *, *, #169, .F. ) ;
#589 = EDGE_CURVE ( 'NONE', #362, #45, #400, .T. ) ;
#590 = EDGE_CURVE ( 'NONE', #440, #841, #831, .T. ) ;
#591 = DIRECTION ( 'NONE',  ( 1.000000000000000000, 0.000000000000000000, -3.464846137378011133E-15 ) ) ;
#592 = ORIENTED_EDGE ( 'NONE', *, *, #133, .F. ) ;
#593 = CARTESIAN_POINT ( 'NONE',  ( -2.433995891533097922, 0.4999999999999995559, -0.9830000000000003180 ) ) ;
#594 = LINE ( 'NONE', #669, #204 ) ;
#595 = EDGE_LOOP ( 'NONE', ( #437, #63, #681, #767 ) ) ;
#596 = AXIS2_PLACEMENT_3D ( 'NONE', #441, #364, #90 ) ;
#597 = ORIENTED_EDGE ( 'NONE', *, *, #713, .F. ) ;
#598 = CIRCLE ( 'NONE', #207, 2.644000000000000128 ) ;
#599 = AXIS2_PLACEMENT_3D ( 'NONE', #573, #433, #93 ) ;
#600 = CARTESIAN_POINT ( 'NONE',  ( -1.683000000000002272, 0.4999999999999995559, -0.9829999999999995408 ) ) ;
#601 = DIRECTION ( 'NONE',  ( -0.000000000000000000, 1.000000000000000000, -0.000000000000000000 ) ) ;
#602 = ORIENTED_EDGE ( 'NONE', *, *, #705, .F. ) ;
#603 = CARTESIAN_POINT ( 'NONE',  ( -1.683000000000002272, 0.4999999999999995559, -0.9829999999999995408 ) ) ;
#604 =( LENGTH_UNIT ( ) NAMED_UNIT ( * ) SI_UNIT ( .MILLI., .METRE. ) );
#605 = CARTESIAN_POINT ( 'NONE',  ( 1.586500000000000465, -0.4999999999999995559, 2.115124996306364746 ) ) ;
#606 = ORIENTED_EDGE ( 'NONE', *, *, #482, .T. ) ;
#607 = FACE_OUTER_BOUND ( 'NONE', #114, .T. ) ;
#608 = EDGE_CURVE ( 'NONE', #451, #553, #684, .T. ) ;
#609 = SURFACE_SIDE_STYLE ('',( #535 ) ) ;
#610 = UNCERTAINTY_MEASURE_WITH_UNIT (LENGTH_MEASURE( 1.000000000000000082E-05 ), #15, 'distance_accuracy_value', 'NONE');
#611 = CARTESIAN_POINT ( 'NONE',  ( -1.586500000000000465, -0.4999999999999995559, 2.115124996306364746 ) ) ;
#612 = EDGE_LOOP ( 'NONE', ( #73, #664, #104, #735, #287, #816, #358, #893, #842, #444, #154, #663, #597, #537, #124, #671, #483 ) ) ;
#613 = DIRECTION ( 'NONE',  ( 0.000000000000000000, 0.000000000000000000, 1.000000000000000000 ) ) ;
#614 = VECTOR ( 'NONE', #513, 1000.000000000000000 ) ;
#615 = VECTOR ( 'NONE', #873, 1000.000000000000000 ) ;
#616 = DIRECTION ( 'NONE',  ( 0.000000000000000000, 0.000000000000000000, -1.000000000000000000 ) ) ;
#617 = CARTESIAN_POINT ( 'NONE',  ( 0.9830000000000003180, 0.4999999999999995559, -2.433995891533098366 ) ) ;
#618 = EDGE_LOOP ( 'NONE', ( #382, #411, #417, #88, #765 ) ) ;
#619 = PRODUCT_DEFINITION ( 'UNKNOWN', '', #524, #122 ) ;
#620 = EDGE_CURVE ( 'NONE', #339, #107, #569, .T. ) ;
#621 = FACE_OUTER_BOUND ( 'NONE', #5, .T. ) ;
#622 = CYLINDRICAL_SURFACE ( 'NONE', #158, 2.644000000000000128 ) ;
#623 = CARTESIAN_POINT ( 'NONE',  ( 0.000000000000000000, -0.4999999999999995559, -2.644000000000000128 ) ) ;
#624 = DIRECTION ( 'NONE',  ( 1.000000000000000000, -0.000000000000000000, -2.887371781148350828E-16 ) ) ;
#625 = ORIENTED_EDGE ( 'NONE', *, *, #651, .T. ) ;
#626 = CYLINDRICAL_SURFACE ( 'NONE', #742, 2.644000000000000128 ) ;
#627 = CYLINDRICAL_SURFACE ( 'NONE', #110, 0.6999999999999998446 ) ;
#628 = CARTESIAN_POINT ( 'NONE',  ( 0.9830000000000016502, 0.4999999999999995559, 2.433995891533097478 ) ) ;
#629 = ORIENTED_EDGE ( 'NONE', *, *, #64, .F. ) ;
#630 = CIRCLE ( 'NONE', #686, 4.500000000000000000 ) ;
#631 = CIRCLE ( 'NONE', #823, 0.7000000000000000666 ) ;
#632 = LINE ( 'NONE', #3, #806 ) ;
#633 = EDGE_CURVE ( 'NONE', #179, #655, #292, .T. ) ;
#634 = CARTESIAN_POINT ( 'NONE',  ( -2.433995891533097922, 6.500000000000000000, -0.9830000000000003180 ) ) ;
#635 = ORIENTED_EDGE ( 'NONE', *, *, #878, .F. ) ;
#636 = CARTESIAN_POINT ( 'NONE',  ( 0.000000000000000000, -0.4999999999999995559, -2.644000000000000128 ) ) ;
#637 = DIRECTION ( 'NONE',  ( 2.309897424918675929E-15, -0.000000000000000000, 1.000000000000000000 ) ) ;
#638 = VERTEX_POINT ( 'NONE', #634 ) ;
#639 = DIRECTION ( 'NONE',  ( 0.000000000000000000, 0.000000000000000000, 1.000000000000000000 ) ) ;
#640 = CARTESIAN_POINT ( 'NONE',  ( -0.9830000000000003180, 0.4999999999999995559, 2.433995891533097922 ) ) ;
#641 = ORIENTED_EDGE ( 'NONE', *, *, #715, .T. ) ;
#642 = SURFACE_STYLE_FILL_AREA ( #281 ) ;
#643 = CIRCLE ( 'NONE', #864, 2.625000000000000000 ) ;
#644 = CARTESIAN_POINT ( 'NONE',  ( -1.586500000000000465, -0.4999999999999995559, -2.115124996306364746 ) ) ;
#645 = VECTOR ( 'NONE', #652, 1000.000000000000000 ) ;
#646 = EDGE_LOOP ( 'NONE', ( #801, #407, #277, #315 ) ) ;
#647 = ADVANCED_FACE ( 'NONE', ( #706 ), #773, .F. ) ;
#648 = EDGE_CURVE ( 'NONE', #841, #166, #631, .T. ) ;
#649 = CARTESIAN_POINT ( 'NONE',  ( 0.000000000000000000, -0.4999999999999995559, 0.000000000000000000 ) ) ;
#650 = ORIENTED_EDGE ( 'NONE', *, *, #449, .T. ) ;
#651 = EDGE_CURVE ( 'NONE', #693, #755, #97, .T. ) ;
#652 = DIRECTION ( 'NONE',  ( -0.000000000000000000, -1.000000000000000000, -0.000000000000000000 ) ) ;
#653 = CARTESIAN_POINT ( 'NONE',  ( -2.433995891533097922, 0.4999999999999995559, 0.9830000000000005400 ) ) ;
#654 = ORIENTED_EDGE ( 'NONE', *, *, #562, .T. ) ;
#655 = VERTEX_POINT ( 'NONE', #216 ) ;
#656 = DIRECTION ( 'NONE',  ( 0.000000000000000000, 0.000000000000000000, 1.000000000000000000 ) ) ;
#657 = VECTOR ( 'NONE', #754, 1000.000000000000000 ) ;
#658 = AXIS2_PLACEMENT_3D ( 'NONE', #297, #711, #420 ) ;
#659 = CIRCLE ( 'NONE', #263, 0.6999999999999996225 ) ;
#660 = EDGE_LOOP ( 'NONE', ( #584, #588, #821, #874 ) ) ;
#661 = LINE ( 'NONE', #33, #317 ) ;
#662 = CARTESIAN_POINT ( 'NONE',  ( 1.586500000000000687, -0.4999999999999995559, 2.115124996306364746 ) ) ;
#663 = ORIENTED_EDGE ( 'NONE', *, *, #47, .F. ) ;
#664 = ORIENTED_EDGE ( 'NONE', *, *, #875, .F. ) ;
#665 = LINE ( 'NONE', #38, #370 ) ;
#666 = CYLINDRICAL_SURFACE ( 'NONE', #446, 0.6999999999999996225 ) ;
#667 = EDGE_LOOP ( 'NONE', ( #779, #685, #193, #714 ) ) ;
#668 = CARTESIAN_POINT ( 'NONE',  ( 0.000000000000000000, 0.4999999999999995559, 2.625000000000000000 ) ) ;
#669 = CARTESIAN_POINT ( 'NONE',  ( 1.683000000000002716, 0.4999999999999995559, 0.9829999999999999849 ) ) ;
#670 = CIRCLE ( 'NONE', #788, 2.625000000000000000 ) ;
#671 = ORIENTED_EDGE ( 'NONE', *, *, #189, .F. ) ;
#672 = CIRCLE ( 'NONE', #74, 4.500000000000000000 ) ;
#673 = DIRECTION ( 'NONE',  ( 0.000000000000000000, -1.000000000000000000, 0.000000000000000000 ) ) ;
#674 = EDGE_CURVE ( 'NONE', #451, #502, #880, .T. ) ;
#675 =( NAMED_UNIT ( * ) SI_UNIT ( $, .STERADIAN. ) SOLID_ANGLE_UNIT ( ) );
#676 = ORIENTED_EDGE ( 'NONE', *, *, #36, .F. ) ;
#677 = EDGE_CURVE ( 'NONE', #428, #572, #582, .T. ) ;
#678 = DIRECTION ( 'NONE',  ( -0.000000000000000000, -1.000000000000000000, -0.000000000000000000 ) ) ;
#679 = DIRECTION ( 'NONE',  ( 0.000000000000000000, 0.000000000000000000, 1.000000000000000000 ) ) ;
#680 = DIRECTION ( 'NONE',  ( 0.000000000000000000, 1.000000000000000000, 0.000000000000000000 ) ) ;
#681 = ORIENTED_EDGE ( 'NONE', *, *, #726, .F. ) ;
#682 = DIRECTION ( 'NONE',  ( 0.000000000000000000, 1.000000000000000000, 0.000000000000000000 ) ) ;
#683 = DIRECTION ( 'NONE',  ( 0.000000000000000000, 0.000000000000000000, -1.000000000000000000 ) ) ;
#684 = LINE ( 'NONE', #623, #445 ) ;
#685 = ORIENTED_EDGE ( 'NONE', *, *, #434, .F. ) ;
#686 = AXIS2_PLACEMENT_3D ( 'NONE', #473, #680, #557 ) ;
#687 = CARTESIAN_POINT ( 'NONE',  ( 0.000000000000000000, -6.500000000000000000, 0.000000000000000000 ) ) ;
#688 = COLOUR_RGB ( '',0.7921568627450980005, 0.8196078431372548767, 0.9333333333333333481 ) ;
#689 = APPLICATION_CONTEXT ( 'automotive_design' ) ;
#690 = LINE ( 'NONE', #544, #43 ) ;
#691 = CARTESIAN_POINT ( 'NONE',  ( -0.9830000000000005400, 0.4999999999999995559, 2.433995891533097922 ) ) ;
#692 = DIRECTION ( 'NONE',  ( 0.000000000000000000, -0.000000000000000000, 1.000000000000000000 ) ) ;
#693 = VERTEX_POINT ( 'NONE', #786 ) ;
#694 = FACE_OUTER_BOUND ( 'NONE', #595, .T. ) ;
#695 = DIRECTION ( 'NONE',  ( 0.000000000000000000, 1.000000000000000000, 0.000000000000000000 ) ) ;
#696 = LINE ( 'NONE', #192, #28 ) ;
#697 = FACE_BOUND ( 'NONE', #612, .T. ) ;
#698 = EDGE_LOOP ( 'NONE', ( #328, #509, #252, #566 ) ) ;
#699 = DIRECTION ( 'NONE',  ( 1.732423068689007144E-15, 0.000000000000000000, -1.000000000000000000 ) ) ;
#700 = DIRECTION ( 'NONE',  ( 0.000000000000000000, 1.000000000000000000, 0.000000000000000000 ) ) ;
#701 = ORIENTED_EDGE ( 'NONE', *, *, #349, .F. ) ;
#702 = AXIS2_PLACEMENT_3D ( 'NONE', #531, #730, #175 ) ;
#703 = LINE ( 'NONE', #60, #109 ) ;
#704 = CIRCLE ( 'NONE', #359, 2.625000000000000000 ) ;
#705 = EDGE_CURVE ( 'NONE', #516, #260, #672, .T. ) ;
#706 = FACE_OUTER_BOUND ( 'NONE', #475, .T. ) ;
#707 = ORIENTED_EDGE ( 'NONE', *, *, #562, .F. ) ;
#708 = DIRECTION ( 'NONE',  ( 1.000000000000000000, -0.000000000000000000, -2.887371781148350828E-16 ) ) ;
#709 = ORIENTED_EDGE ( 'NONE', *, *, #256, .F. ) ;
#710 = DIRECTION ( 'NONE',  ( 2.887371781148350828E-16, 0.000000000000000000, 1.000000000000000000 ) ) ;
#711 = DIRECTION ( 'NONE',  ( -0.000000000000000000, 1.000000000000000000, -0.000000000000000000 ) ) ;
#712 = ADVANCED_FACE ( 'NONE', ( #854 ), #792, .T. ) ;
#713 = EDGE_CURVE ( 'NONE', #905, #546, #346, .T. ) ;
#714 = ORIENTED_EDGE ( 'NONE', *, *, #783, .T. ) ;
#715 = EDGE_CURVE ( 'NONE', #301, #553, #852, .T. ) ;
#716 = CARTESIAN_POINT ( 'NONE',  ( 0.000000000000000000, 0.4999999999999995559, 0.000000000000000000 ) ) ;
#717 = PRESENTATION_LAYER_ASSIGNMENT (  '', '', ( #443 ) ) ;
#718 = AXIS2_PLACEMENT_3D ( 'NONE', #409, #700, #749 ) ;
#719 = DIRECTION ( 'NONE',  ( 0.000000000000000000, 0.000000000000000000, -1.000000000000000000 ) ) ;
#720 = AXIS2_PLACEMENT_3D ( 'NONE', #325, #803, #534 ) ;
#721 = ORIENTED_EDGE ( 'NONE', *, *, #674, .F. ) ;
#722 = DIRECTION ( 'NONE',  ( 0.000000000000000000, 1.000000000000000000, 0.000000000000000000 ) ) ;
#723 = DIRECTION ( 'NONE',  ( 0.000000000000000000, 0.000000000000000000, 1.000000000000000000 ) ) ;
#724 = EDGE_LOOP ( 'NONE', ( #734, #373, #676, #804 ) ) ;
#725 = DIRECTION ( 'NONE',  ( 0.000000000000000000, 1.000000000000000000, 0.000000000000000000 ) ) ;
#726 = EDGE_CURVE ( 'NONE', #855, #885, #574, .T. ) ;
#727 = PLANE ( 'NONE',  #702 ) ;
#728 = ORIENTED_EDGE ( 'NONE', *, *, #304, .T. ) ;
#729 = PLANE ( 'NONE',  #148 ) ;
#730 = DIRECTION ( 'NONE',  ( -0.000000000000000000, 0.000000000000000000, 1.000000000000000000 ) ) ;
#731 = AXIS2_PLACEMENT_3D ( 'NONE', #197, #495, #397 ) ;
#732 = COLOUR_RGB ( '',0.7921568627450980005, 0.8196078431372548767, 0.9333333333333333481 ) ;
#733 = STYLED_ITEM ( 'NONE', ( #430 ), #23 ) ;
#734 = ORIENTED_EDGE ( 'NONE', *, *, #753, .T. ) ;
#735 = ORIENTED_EDGE ( 'NONE', *, *, #877, .F. ) ;
#736 = LINE ( 'NONE', #313, #895 ) ;
#737 = ORIENTED_EDGE ( 'NONE', *, *, #89, .F. ) ;
#738 = CARTESIAN_POINT ( 'NONE',  ( 1.586500000000000465, -6.500000000000000000, 2.115124996306364746 ) ) ;
#739 = DIRECTION ( 'NONE',  ( 0.000000000000000000, 0.000000000000000000, 1.000000000000000000 ) ) ;
#740 = ORIENTED_EDGE ( 'NONE', *, *, #183, .T. ) ;
#741 = FACE_OUTER_BOUND ( 'NONE', #51, .T. ) ;
#742 = AXIS2_PLACEMENT_3D ( 'NONE', #834, #564, #616 ) ;
#743 = VERTEX_POINT ( 'NONE', #492 ) ;
#744 = EDGE_CURVE ( 'NONE', #146, #546, #219, .T. ) ;
#745 = AXIS2_PLACEMENT_3D ( 'NONE', #503, #789, #366 ) ;
#746 = VECTOR ( 'NONE', #467, 1000.000000000000000 ) ;
#747 = CARTESIAN_POINT ( 'NONE',  ( -0.9830000000000023164, 6.500000000000000000, -1.682999999999999829 ) ) ;
#748 = UNCERTAINTY_MEASURE_WITH_UNIT (LENGTH_MEASURE( 1.000000000000000082E-05 ), #604, 'distance_accuracy_value', 'NONE');
#749 = DIRECTION ( 'NONE',  ( 0.000000000000000000, -0.000000000000000000, 1.000000000000000000 ) ) ;
#750 = ORIENTED_EDGE ( 'NONE', *, *, #267, .T. ) ;
#751 = CARTESIAN_POINT ( 'NONE',  ( 0.000000000000000000, -0.4999999999999995559, 0.000000000000000000 ) ) ;
#752 = EDGE_CURVE ( 'NONE', #362, #235, #561, .T. ) ;
#753 = EDGE_CURVE ( 'NONE', #638, #905, #643, .T. ) ;
#754 = DIRECTION ( 'NONE',  ( -2.887371781148343137E-15, 0.000000000000000000, 1.000000000000000000 ) ) ;
#755 = VERTEX_POINT ( 'NONE', #778 ) ;
#756 = CARTESIAN_POINT ( 'NONE',  ( -1.586500000000000465, -6.500000000000000000, -2.115124996306364746 ) ) ;
#757 = FACE_OUTER_BOUND ( 'NONE', #882, .T. ) ;
#758 = CARTESIAN_POINT ( 'NONE',  ( 1.683000000000002716, 0.4999999999999995559, 1.683000000000000052 ) ) ;
#759 = PLANE ( 'NONE',  #174 ) ;
#760 = ORIENTED_EDGE ( 'NONE', *, *, #795, .T. ) ;
#761 = DIRECTION ( 'NONE',  ( -0.000000000000000000, 1.000000000000000000, -0.000000000000000000 ) ) ;
#762 = PRESENTATION_LAYER_ASSIGNMENT (  '', '', ( #733 ) ) ;
#763 = DIRECTION ( 'NONE',  ( -1.000000000000000000, 0.000000000000000000, -2.887371781148343137E-15 ) ) ;
#764 = DIRECTION ( 'NONE',  ( 0.000000000000000000, 0.000000000000000000, -1.000000000000000000 ) ) ;
#765 = ORIENTED_EDGE ( 'NONE', *, *, #494, .F. ) ;
#766 = APPLICATION_CONTEXT ( 'automotive_design' ) ;
#767 = ORIENTED_EDGE ( 'NONE', *, *, #781, .T. ) ;
#768 = CARTESIAN_POINT ( 'NONE',  ( 1.683000000000002716, 6.500000000000000000, 1.683000000000000052 ) ) ;
#769 = CARTESIAN_POINT ( 'NONE',  ( 1.683000000000002716, 0.4999999999999995559, -0.9829999999999999849 ) ) ;
#770 = ORIENTED_EDGE ( 'NONE', *, *, #286, .T. ) ;
#771 = ADVANCED_FACE ( 'NONE', ( #150 ), #782, .F. ) ;
#772 = CARTESIAN_POINT ( 'NONE',  ( 1.586500000000000465, -0.4999999999999995559, 2.115124996306364746 ) ) ;
#773 = CYLINDRICAL_SURFACE ( 'NONE', #369, 2.625000000000000444 ) ;
#774 = ORIENTED_EDGE ( 'NONE', *, *, #648, .F. ) ;
#775 = AXIS2_PLACEMENT_3D ( 'NONE', #472, #350, #683 ) ;
#776 = FACE_OUTER_BOUND ( 'NONE', #698, .T. ) ;
#777 = CIRCLE ( 'NONE', #720, 0.7000000000000000666 ) ;
#778 = CARTESIAN_POINT ( 'NONE',  ( 0.9830000000000029825, 6.500000000000000000, -1.683000000000000052 ) ) ;
#779 = ORIENTED_EDGE ( 'NONE', *, *, #633, .T. ) ;
#780 = CARTESIAN_POINT ( 'NONE',  ( -1.683000000000002272, 6.500000000000000000, 1.682999999999999607 ) ) ;
#781 = EDGE_CURVE ( 'NONE', #855, #861, #857, .T. ) ;
#782 = CYLINDRICAL_SURFACE ( 'NONE', #658, 2.625000000000000000 ) ;
#783 = EDGE_CURVE ( 'NONE', #743, #179, #84, .T. ) ;
#784 = VERTEX_POINT ( 'NONE', #504 ) ;
#785 = FACE_OUTER_BOUND ( 'NONE', #660, .T. ) ;
#786 = CARTESIAN_POINT ( 'NONE',  ( 1.683000000000002716, 6.500000000000000000, -0.9830000000000000959 ) ) ;
#787 = ORIENTED_EDGE ( 'NONE', *, *, #648, .T. ) ;
#788 = AXIS2_PLACEMENT_3D ( 'NONE', #274, #695, #65 ) ;
#789 = DIRECTION ( 'NONE',  ( 0.000000000000000000, 1.000000000000000000, 0.000000000000000000 ) ) ;
#790 = VECTOR ( 'NONE', #412, 1000.000000000000000 ) ;
#791 = CIRCLE ( 'NONE', #447, 4.500000000000000000 ) ;
#792 = CYLINDRICAL_SURFACE ( 'NONE', #539, 4.500000000000000000 ) ;
#793 = CIRCLE ( 'NONE', #745, 2.625000000000000000 ) ;
#794 = ORIENTED_EDGE ( 'NONE', *, *, #233, .T. ) ;
#795 = EDGE_CURVE ( 'NONE', #428, #693, #178, .T. ) ;
#796 = FACE_OUTER_BOUND ( 'NONE', #828, .T. ) ;
#797 = CYLINDRICAL_SURFACE ( 'NONE', #223, 2.644000000000000128 ) ;
#798 = ORIENTED_EDGE ( 'NONE', *, *, #487, .T. ) ;
#799 = CARTESIAN_POINT ( 'NONE',  ( 0.9830000000000003180, 0.4999999999999995559, -2.433995891533098366 ) ) ;
#800 =( NAMED_UNIT ( * ) PLANE_ANGLE_UNIT ( ) SI_UNIT ( $, .RADIAN. ) );
#801 = ORIENTED_EDGE ( 'NONE', *, *, #2, .T. ) ;
#802 = ORIENTED_EDGE ( 'NONE', *, *, #183, .F. ) ;
#803 = DIRECTION ( 'NONE',  ( -0.000000000000000000, -1.000000000000000000, 0.000000000000000000 ) ) ;
#804 = ORIENTED_EDGE ( 'NONE', *, *, #169, .T. ) ;
#805 = DIRECTION ( 'NONE',  ( -1.000000000000000000, -0.000000000000000000, 1.732423068689012272E-15 ) ) ;
#806 = VECTOR ( 'NONE', #479, 1000.000000000000000 ) ;
#807 = VERTEX_POINT ( 'NONE', #103 ) ;
#808 = CARTESIAN_POINT ( 'NONE',  ( 0.000000000000000000, -6.500000000000000000, 0.000000000000000000 ) ) ;
#809 = CARTESIAN_POINT ( 'NONE',  ( 1.683000000000002716, 0.4999999999999995559, -0.9830000000000000959 ) ) ;
#810 = EDGE_CURVE ( 'NONE', #841, #249, #308, .T. ) ;
#811 = ORIENTED_EDGE ( 'NONE', *, *, #36, .T. ) ;
#812 = EDGE_CURVE ( 'NONE', #885, #245, #414, .T. ) ;
#813 = CARTESIAN_POINT ( 'NONE',  ( -0.9830000000000003180, 6.500000000000000000, -2.433995891533097922 ) ) ;
#814 = ADVANCED_FACE ( 'NONE', ( #527 ), #727, .F. ) ;
#815 = LINE ( 'NONE', #376, #172 ) ;
#816 = ORIENTED_EDGE ( 'NONE', *, *, #378, .F. ) ;
#817 = DIRECTION ( 'NONE',  ( -3.464846137378011133E-15, 0.000000000000000000, -1.000000000000000000 ) ) ;
#818 = FILL_AREA_STYLE ('',( #540 ) ) ;
#819 = CIRCLE ( 'NONE', #731, 2.625000000000000444 ) ;
#820 = DIRECTION ( 'NONE',  ( -0.000000000000000000, 1.000000000000000000, -0.000000000000000000 ) ) ;
#821 = ORIENTED_EDGE ( 'NONE', *, *, #213, .F. ) ;
#822 = VECTOR ( 'NONE', #141, 1000.000000000000000 ) ;
#823 = AXIS2_PLACEMENT_3D ( 'NONE', #848, #153, #719 ) ;
#824 = ADVANCED_FACE ( 'NONE', ( #303 ), #797, .F. ) ;
#825 = LINE ( 'NONE', #476, #746 ) ;
#826 = DIRECTION ( 'NONE',  ( 1.000000000000000000, 0.000000000000000000, 0.000000000000000000 ) ) ;
#827 = LINE ( 'NONE', #617, #413 ) ;
#828 = EDGE_LOOP ( 'NONE', ( #728, #737, #265, #552 ) ) ;
#829 = CARTESIAN_POINT ( 'NONE',  ( 0.000000000000000000, 6.500000000000000000, -4.500000000000000000 ) ) ;
#830 = CARTESIAN_POINT ( 'NONE',  ( -0.9830000000000003180, 0.4999999999999995559, -2.433995891533097922 ) ) ;
#831 = LINE ( 'NONE', #341, #657 ) ;
#832 = VERTEX_POINT ( 'NONE', #454 ) ;
#833 = LINE ( 'NONE', #120, #510 ) ;
#834 = CARTESIAN_POINT ( 'NONE',  ( 0.000000000000000000, -0.4999999999999995559, 0.000000000000000000 ) ) ;
#835 = CARTESIAN_POINT ( 'NONE',  ( 1.586500000000000465, -0.4999999999999995559, -2.115124996306364746 ) ) ;
#836 = ORIENTED_EDGE ( 'NONE', *, *, #78, .T. ) ;
#837 = ORIENTED_EDGE ( 'NONE', *, *, #68, .T. ) ;
#838 = AXIS2_PLACEMENT_3D ( 'NONE', #780, #19, #586 ) ;
#839 = LINE ( 'NONE', #392, #1 ) ;
#840 = CARTESIAN_POINT ( 'NONE',  ( 0.000000000000000000, -0.4999999999999995559, 0.000000000000000000 ) ) ;
#841 = VERTEX_POINT ( 'NONE', #106 ) ;
#842 = ORIENTED_EDGE ( 'NONE', *, *, #318, .F. ) ;
#843 = DIRECTION ( 'NONE',  ( -0.000000000000000000, -1.000000000000000000, -0.000000000000000000 ) ) ;
#844 = EDGE_CURVE ( 'NONE', #355, #119, #254, .T. ) ;
#845 = DIRECTION ( 'NONE',  ( 0.000000000000000000, 1.000000000000000000, 0.000000000000000000 ) ) ;
#846 = EDGE_LOOP ( 'NONE', ( #890, #635, #151, #40 ) ) ;
#847 = CARTESIAN_POINT ( 'NONE',  ( 0.9830000000000027605, 0.4999999999999995559, 1.683000000000000274 ) ) ;
#848 = CARTESIAN_POINT ( 'NONE',  ( -1.683000000000002272, 0.4999999999999995559, -1.682999999999999607 ) ) ;
#849 = EDGE_LOOP ( 'NONE', ( #474, #293, #707, #499 ) ) ;
#850 = VECTOR ( 'NONE', #203, 1000.000000000000000 ) ;
#851 = ADVANCED_FACE ( 'NONE', ( #319 ), #24, .F. ) ;
#852 = CIRCLE ( 'NONE', #185, 2.644000000000000128 ) ;
#853 = FACE_OUTER_BOUND ( 'NONE', #455, .T. ) ;
#854 = FACE_OUTER_BOUND ( 'NONE', #298, .T. ) ;
#855 = VERTEX_POINT ( 'NONE', #865 ) ;
#856 = DIRECTION ( 'NONE',  ( 1.000000000000000000, 0.000000000000000000, -2.887371781148350828E-16 ) ) ;
#857 = LINE ( 'NONE', #570, #262 ) ;
#858 = ORIENTED_EDGE ( 'NONE', *, *, #620, .T. ) ;
#859 = DIRECTION ( 'NONE',  ( 0.000000000000000000, 1.000000000000000000, 0.000000000000000000 ) ) ;
#860 = CARTESIAN_POINT ( 'NONE',  ( 0.000000000000000000, -6.500000000000000000, 0.000000000000000000 ) ) ;
#861 = VERTEX_POINT ( 'NONE', #240 ) ;
#862 = CARTESIAN_POINT ( 'NONE',  ( 0.000000000000000000, -6.500000000000000000, 0.000000000000000000 ) ) ;
#863 = VECTOR ( 'NONE', #907, 1000.000000000000000 ) ;
#864 = AXIS2_PLACEMENT_3D ( 'NONE', #291, #845, #144 ) ;
#865 = CARTESIAN_POINT ( 'NONE',  ( -0.9830000000000020943, 0.4999999999999995559, 1.683000000000000274 ) ) ;
#866 = VECTOR ( 'NONE', #105, 1000.000000000000000 ) ;
#867 = ORIENTED_EDGE ( 'NONE', *, *, #410, .T. ) ;
#868 = EDGE_CURVE ( 'NONE', #255, #832, #251, .T. ) ;
#869 = CARTESIAN_POINT ( 'NONE',  ( 1.683000000000002716, 6.500000000000000000, 0.9829999999999999849 ) ) ;
#870 = CARTESIAN_POINT ( 'NONE',  ( -1.586500000000000465, -0.4999999999999995559, -2.115124996306364746 ) ) ;
#871 = VERTEX_POINT ( 'NONE', #653 ) ;
#872 = ORIENTED_EDGE ( 'NONE', *, *, #810, .T. ) ;
#873 = DIRECTION ( 'NONE',  ( -2.887371781148343137E-15, 0.000000000000000000, 1.000000000000000000 ) ) ;
#874 = ORIENTED_EDGE ( 'NONE', *, *, #159, .T. ) ;
#875 = EDGE_CURVE ( 'NONE', #755, #179, #815, .T. ) ;
#876 = CYLINDRICAL_SURFACE ( 'NONE', #224, 2.625000000000000000 ) ;
#877 = EDGE_CURVE ( 'NONE', #394, #693, #181, .T. ) ;
#878 = EDGE_CURVE ( 'NONE', #18, #48, #594, .T. ) ;
#879 = CARTESIAN_POINT ( 'NONE',  ( -2.433995891533097922, 6.500000000000000000, 0.9830000000000005400 ) ) ;
#880 = CIRCLE ( 'NONE', #894, 2.644000000000000128 ) ;
#881 = AXIS2_PLACEMENT_3D ( 'NONE', #716, #725, #639 ) ;
#882 = EDGE_LOOP ( 'NONE', ( #794, #458, #247, #142 ) ) ;
#883 = DIRECTION ( 'NONE',  ( 0.000000000000000000, 0.000000000000000000, 1.000000000000000000 ) ) ;
#884 = CARTESIAN_POINT ( 'NONE',  ( -0.9830000000000023164, 0.4999999999999995559, -1.682999999999999829 ) ) ;
#885 = VERTEX_POINT ( 'NONE', #367 ) ;
#886 = DIRECTION ( 'NONE',  ( -1.000000000000000000, 0.000000000000000000, -1.443685890574175907E-15 ) ) ;
#887 = PRODUCT_DEFINITION_SHAPE ( 'NONE', 'NONE',  #619 ) ;
#888 = DIRECTION ( 'NONE',  ( -0.000000000000000000, 1.000000000000000000, -0.000000000000000000 ) ) ;
#889 = ADVANCED_FACE ( 'NONE', ( #244 ), #666, .T. ) ;
#890 = ORIENTED_EDGE ( 'NONE', *, *, #419, .T. ) ;
#891 = LINE ( 'NONE', #813, #615 ) ;
#892 = FACE_OUTER_BOUND ( 'NONE', #575, .T. ) ;
#893 = ORIENTED_EDGE ( 'NONE', *, *, #304, .F. ) ;
#894 = AXIS2_PLACEMENT_3D ( 'NONE', #649, #285, #234 ) ;
#895 = VECTOR ( 'NONE', #678, 1000.000000000000000 ) ;
#896 = PLANE ( 'NONE',  #76 ) ;
#897 = CARTESIAN_POINT ( 'NONE',  ( 2.433995891533097922, 6.500000000000000000, -0.9830000000000012061 ) ) ;
#898 = SHAPE_DEFINITION_REPRESENTATION ( #887, #477 ) ;
#899 = CARTESIAN_POINT ( 'NONE',  ( 0.000000000000000000, -6.500000000000000000, 0.000000000000000000 ) ) ;
#900 = CARTESIAN_POINT ( 'NONE',  ( -1.586500000000000465, -6.500000000000000000, -2.115124996306364746 ) ) ;
#901 = DIRECTION ( 'NONE',  ( -0.000000000000000000, 1.000000000000000000, -0.000000000000000000 ) ) ;
#902 = CARTESIAN_POINT ( 'NONE',  ( 0.000000000000000000, -0.4999999999999995559, 0.000000000000000000 ) ) ;
#903 = DIRECTION ( 'NONE',  ( 0.000000000000000000, 1.000000000000000000, 0.000000000000000000 ) ) ;
#904 = CARTESIAN_POINT ( 'NONE',  ( -1.683000000000001828, 0.4999999999999995559, 0.9830000000000003180 ) ) ;
#905 = VERTEX_POINT ( 'NONE', #879 ) ;
#906 = CARTESIAN_POINT ( 'NONE',  ( 1.683000000000002716, 6.500000000000000000, 0.9829999999999999849 ) ) ;
#907 = DIRECTION ( 'NONE',  ( -0.000000000000000000, -1.000000000000000000, -0.000000000000000000 ) ) ;
#908 = LINE ( 'NONE', #900, #16 ) ;
#909 = ORIENTED_EDGE ( 'NONE', *, *, #189, .T. ) ;
#910 = VECTOR ( 'NONE', #229, 1000.000000000000000 ) ;
ENDSEC;
END-ISO-10303-21;
